<svg width="37" height="36" viewBox="0 0 37 36" fill="none" xmlns="http://www.w3.org/2000/svg">
<g id="Flag">
<g clip-path="url(#clip0_12_1487)">
<rect x="0.982178" width="36" height="36" rx="18" fill="white"/>
<path id="Vector" fill-rule="evenodd" clip-rule="evenodd" d="M0.982178 0H22.5822V16.8H0.982178V0Z" fill="#1A47B8"/>
<path id="Vector_2" fill-rule="evenodd" clip-rule="evenodd" d="M22.5822 0V2.4H51.3822V0H22.5822ZM22.5822 4.8V7.2H51.3822V4.8H22.5822ZM22.5822 9.6V12H51.3822V9.6H22.5822ZM22.5822 14.4V16.8H51.3822V14.4H22.5822ZM0.982178 19.2V21.6H51.3822V19.2H0.982178ZM0.982178 24V26.4H51.3822V24H0.982178ZM0.982178 28.8V31.2H51.3822V28.8H0.982178ZM0.982178 33.6V36H51.3822V33.6H0.982178Z" fill="#F93939"/>
<path id="Vector_3" fill-rule="evenodd" clip-rule="evenodd" d="M3.38208 2.3999V4.7999H5.78208V2.3999H3.38208ZM8.18208 2.3999V4.7999H10.5821V2.3999H8.18208ZM12.9821 2.3999V4.7999H15.3821V2.3999H12.9821ZM17.7821 2.3999V4.7999H20.1821V2.3999H17.7821ZM15.3821 4.7999V7.1999H17.7821V4.7999H15.3821ZM10.5821 4.7999V7.1999H12.9821V4.7999H10.5821ZM5.78208 4.7999V7.1999H8.18208V4.7999H5.78208ZM3.38208 7.1999V9.5999H5.78208V7.1999H3.38208ZM8.18208 7.1999V9.5999H10.5821V7.1999H8.18208ZM12.9821 7.1999V9.5999H15.3821V7.1999H12.9821ZM17.7821 7.1999V9.5999H20.1821V7.1999H17.7821ZM3.38208 11.9999V14.3999H5.78208V11.9999H3.38208ZM8.18208 11.9999V14.3999H10.5821V11.9999H8.18208ZM12.9821 11.9999V14.3999H15.3821V11.9999H12.9821ZM17.7821 11.9999V14.3999H20.1821V11.9999H17.7821ZM15.3821 9.5999V11.9999H17.7821V9.5999H15.3821ZM10.5821 9.5999V11.9999H12.9821V9.5999H10.5821ZM5.78208 9.5999V11.9999H8.18208V9.5999H5.78208Z" fill="white"/>
</g>
</g>
<defs>
<clipPath id="clip0_12_1487">
<rect x="0.982178" width="36" height="36" rx="18" fill="white"/>
</clipPath>
</defs>
</svg>
