<?xml version="1.0" encoding="UTF-8"?>
<svg id="katman_1" data-name="katman 1" xmlns="http://www.w3.org/2000/svg" version="1.1" viewBox="0 0 1920 1080" fill="#2563eb" stroke-width="0px">
  <g>
    <path class="cls-1" d="M225.54,293.39c-2.7.98-5.51,1.24-8.2.19-10.07-3.92-15.28-11.94-17.11-22.05-1.49-8.2-2.24-16.55-4.08-24.72-2.32-10.35-5.34-20.45-9.49-30.19,9.46.2,18.35.95,26.71,2.21-.15.99-.29,1.99-.41,3-1.35,10.94-.91,21.78,1.62,32.53,1.9,8.1,5.26,15.63,8.73,23.13,1.75,3.8,3.51,7.6,4.52,11.68.53,2.16-.22,3.48-2.3,4.23Z"/>
    <path class="cls-1" d="M315.72,337.74c0,69.86-41.49,121.17-134.27,121.17h-75.88v114.62H35.71V216.56h94.52c.1,2.73.09,5.48,0,8.25-.58,16.56-3.49,32.78-7.54,48.82-2.38,9.42-5.42,18.63-10.16,27.18-2.65,4.8-5.58,9.42-10.53,12.27-3.57,2.05-6.99.76-8.44-3.06-1.56-4.17-1.13-8.38-.23-12.54,1.32-6.21,3.58-12.13,5.48-18.17,3.07-9.82,6.16-19.64,7.56-29.87,1.23-9.04.98-17.97-2.09-26.67-.73-2.06-1.54-4.12-2.79-5.95-.19.8-.23,1.55-.22,2.3.09,4.58-.67,9.04-1.96,13.38-2.75,9.15-7.66,17.24-12.85,25.15-5.25,7.98-10.75,15.82-15.5,24.12-5.31,9.28-9.33,19.08-11.26,29.66-2.59,14.21-1.04,28.11,3.03,41.83,3.66,12.37,9.21,23.82,16.83,34.23,1.81,2.49,3.64,4.99,5.85,7.16.39-.42.26-.79.23-1.13-.79-8.6,2.37-15.64,8.42-21.61,5.03-4.99,10.94-8.79,16.84-12.59,6.97-4.5,13.96-8.96,20.34-14.33,10.73-9.04,17.52-20.61,21.39-33.98,3.19-10.97,2.94-22.16,2.16-33.38-.91-13.22-1.75-26.42-.04-39.64.44-3.41.88-6.81,1.84-10.13-.07,7.47,2.03,14.31,5.66,20.76,3.2,5.69,7.11,10.88,10.86,16.18,5.44,7.66,10.48,15.5,12.54,24.85,1.2,5.47,1.84,10.89-.57,16.24-.67,1.49-.47,3.06.51,4.47.7,1.01,1.42,2,2.31,2.82,5.38,4.96,11.04,9.63,15.64,15.37,1.92,2.38,4.21,4.52,4.81,7.75.56,3-.63,4.68-3.67,5.04-2.25.26-4.5.5-6.73.89-3.04.53-4.75,2.6-4.47,5.23.13,1.29.91,2.24,1.61,3.25,1.21,1.75,2.76,3.29,3.48,5.38.75,2.18.25,3.3-1.89,4.06-1.05.38-2.12.72-3.17,1.07.92.6,1.77.77,2.59,1.04,3.42,1.15,4.15,3.14,2.09,6.08-.77,1.11-.89,2.24-.72,3.47.51,3.47,1.62,6.77,2.7,10.09.75,2.32,1.37,4.68,1.58,7.12.38,4.34-.82,5.91-5.1,6.73-.12.01-.22.09-.32.13-2.27,3.03-4.05,3.76-7.85,3-4.91-.99-9.53-2.97-14.36-4.24-9.87-2.59-19.8-4.66-30.06-4.37-4.8.13-9.5.75-13.89,2.85-6.74,3.23-9.21,8.96-6.71,15.99,2.15,6.04,6.61,10.18,11.74,13.64,9.15,6.17,19.46,9.04,30.35,9.74,19.47,1.24,37.79-3.23,54.77-12.65,16.54-9.18,27.66-23.1,33.63-41.08,4.42-13.33,5.35-27.03,4.31-40.95-.44-5.91-1.39-11.74-2.24-17.65,9.21,13.28,13.96,28.09,14.93,44.28.41-.39.54-.83.72-1.26,2.13-5.03,3.86-10.2,5.06-15.54,2.59-11.52,2.31-22.94-1.21-34.24-3.8-12.18-10.66-22.63-18.41-32.57-7.94-10.16-16.81-19.53-24.83-29.62-6.13-7.7-11.77-15.7-15.44-24.94-.94-2.35-1.59-4.8-2.3-7.27,69.61,10.98,101.16,57.79,101.16,118.73Z"/>
  </g>
  <path class="cls-1" d="M377.05,222.38h147.58c89.41,0,128.72,49.01,128.72,116.34,0,55.48-26.39,93.72-73.79,109.34l86.71,126.57h-81.87l-74.87-119.03h-63.55v119.03h-68.94V222.38ZM525.7,391.5c43.63,0,58.17-22.62,58.17-52.78s-14.54-52.24-58.17-52.24h-79.71v105.03h79.71Z"/>
  <path class="cls-1" d="M694.28,398.51c0-105.57,77.56-183.12,187.43-183.12s187.43,77.56,187.43,183.12-77.56,183.12-187.43,183.12-187.43-77.56-187.43-183.12ZM999.13,398.51c0-68.94-47.4-119.03-117.41-119.03s-117.41,50.09-117.41,119.03,47.4,119.57,117.41,119.57,117.41-50.63,117.41-119.57Z"/>
  <path class="cls-1" d="M1115.47,347.88c0-90.48,53.32-132.49,122.8-132.49,44.7,0,79.71,18.85,100.18,53.86,20.47-35.01,55.48-53.86,100.18-53.86,69.48,0,122.8,42.01,122.8,132.49v226.75h-68.94v-226.75c0-48.47-25.85-68.4-59.78-68.4s-59.78,20.47-59.78,68.4v226.75h-68.94v-226.75c0-47.93-25.85-68.4-59.78-68.4s-59.79,19.93-59.79,68.4v226.75h-68.94v-226.75Z"/>
  <path class="cls-1" d="M1625.53,222.38h259.61v64.09h-190.66v78.64h159.43v61.4h-159.43v84.56h190.66v63.56h-259.61V222.38Z"/>
  <path class="cls-1" d="M34.5,793.81h43.81c.35,18.23,14.02,30.5,41.36,30.5s41.36-12.27,41.36-30.5c0-19.98-21.38-23.83-46.27-28.39-34.7-6.31-75.71-13.67-75.71-66.95,0-42.41,32.25-72.21,80.97-72.21s79.22,28.39,80.97,70.45h-42.41c-.35-17.52-13.32-30.14-38.21-30.14s-37.85,13.67-37.85,30.5c0,19.98,21.38,23.83,46.27,28.39,34.7,6.31,76.06,13.67,76.06,66.95,0,44.51-34,72.21-85.18,72.21s-84.12-26.99-85.18-70.8Z"/>
  <path class="cls-1" d="M228.68,745.44c0-68.7,50.47-119.17,121.98-119.17s121.98,50.47,121.98,119.17-50.47,119.18-121.98,119.18-121.98-50.47-121.98-119.18ZM427.07,745.44c0-44.87-30.85-77.46-76.41-77.46s-76.41,32.6-76.41,77.46,30.85,77.82,76.41,77.82,76.41-32.95,76.41-77.82Z"/>
  <path class="cls-1" d="M508.03,630.82h44.87v187.88h119.88v41.36h-164.74v-229.24Z"/>
  <path class="cls-1" d="M700.1,768.93v-138.1h44.87v138.1c0,34,17.53,54.33,52.23,54.33s52.58-20.33,52.58-54.33v-138.1h43.81v138.1c0,58.54-34.35,95.69-96.04,95.69s-97.44-36.81-97.44-95.69Z"/>
  <path class="cls-1" d="M989.27,672.53h-68.35v-41.71h181.57v41.71h-68.35v187.53h-44.87v-187.53Z"/>
  <path class="cls-1" d="M1135.77,630.82h44.87v229.24h-44.87v-229.24Z"/>
  <path class="cls-1" d="M1216.39,745.44c0-68.7,50.47-119.17,121.98-119.17s121.98,50.47,121.98,119.17-50.47,119.18-121.98,119.18-121.98-50.47-121.98-119.18ZM1414.78,745.44c0-44.87-30.85-77.46-76.41-77.46s-76.41,32.6-76.41,77.46,30.84,77.82,76.41,77.82,76.41-32.95,76.41-77.82Z"/>
  <path class="cls-1" d="M1490.48,721.96c0-58.89,34.7-95.69,97.44-95.69s97.44,36.8,97.44,95.69v138.1h-44.87v-138.1c0-34-17.53-53.98-52.58-53.98s-52.58,19.98-52.58,53.98v138.1h-44.87v-138.1Z"/>
  <path class="cls-1" d="M1715.15,793.81h43.81c.35,18.23,14.02,30.5,41.36,30.5s41.36-12.27,41.36-30.5c0-19.98-21.38-23.83-46.27-28.39-34.7-6.31-75.71-13.67-75.71-66.95,0-42.41,32.25-72.21,80.97-72.21s79.22,28.39,80.97,70.45h-42.41c-.35-17.52-13.32-30.14-38.21-30.14s-37.85,13.67-37.85,30.5c0,19.98,21.38,23.83,46.27,28.39,34.7,6.31,76.06,13.67,76.06,66.95,0,44.51-34,72.21-85.18,72.21s-84.12-26.99-85.18-70.8Z"/>
</svg>